<?xml version="1.0" encoding="iso-8859-1"?>
<!-- Uploaded to: SVG Repo, www.svgrepo.com, Generator: SVG Repo Mixer Tools -->
<svg fill="#000000" height="800px" width="800px" version="1.1" id="Layer_1" xmlns="http://www.w3.org/2000/svg" xmlns:xlink="http://www.w3.org/1999/xlink" 
	 viewBox="0 0 512 512" xml:space="preserve">
<g>
	<g>
		<path d="M501.801,119.315H346.637V87.028c0-24.182-19.674-43.857-43.857-43.857h-93.561c-24.182,0-43.857,19.674-43.857,43.857
			v32.288H10.199C4.566,119.315,0,123.883,0,129.515V458.63c0,5.632,4.566,10.199,10.199,10.199h491.602
			c5.633,0,10.199-4.567,10.199-10.199V129.515C512,123.883,507.434,119.315,501.801,119.315z M209.219,63.57h93.561
			c9.282,0,17.322,5.419,21.123,13.259H188.096C191.897,68.988,199.937,63.57,209.219,63.57z M185.761,97.227h140.478v22.088
			H185.761V97.227z M20.398,448.43v-31.69c15.261,3.899,27.198,16.224,30.542,31.69H20.398z M491.602,448.43h-31.835
			c3.434-15.913,15.953-28.488,31.835-32.003V448.43z M439.065,448.441l-0.011-0.011H71.652l-0.011,0.011
			c-3.819-26.73-24.717-48.061-51.25-52.521l0.007-0.012V139.714h471.203v255.985l0.008,0.008
			C464.45,399.676,442.941,421.252,439.065,448.441z"/>
	</g>
</g>
<g>
	<g>
		<path d="M183.45,156.382H50.86c-5.633,0-10.199,4.567-10.199,10.199s4.566,10.199,10.199,10.199h132.59
			c5.633,0,10.199-4.567,10.199-10.199S189.083,156.382,183.45,156.382z"/>
	</g>
</g>
<g>
	<g>
		<path d="M229.346,156.382h-11.219c-5.633,0-10.199,4.567-10.199,10.199s4.566,10.199,10.199,10.199h11.219
			c5.633,0,10.199-4.567,10.199-10.199S234.979,156.382,229.346,156.382z"/>
	</g>
</g>
</svg>