<?xml version="1.0" standalone="no"?>
<!DOCTYPE svg PUBLIC "-//W3C//DTD SVG 20010904//EN"
 "http://www.w3.org/TR/2001/REC-SVG-20010904/DTD/svg10.dtd">
<svg version="1.0" xmlns="http://www.w3.org/2000/svg"
 width="1264.000000pt" height="1280.000000pt" viewBox="0 0 1264.000000 1280.000000"
 preserveAspectRatio="xMidYMid meet">
<metadata>
Created by potrace 1.15, written by Peter Selinger 2001-2017
</metadata>
<g transform="translate(0.000000,1280.000000) scale(0.100000,-0.100000)"
fill="#000000" stroke="none">
<path d="M9010 12784 c-159 -43 -275 -154 -322 -307 -32 -107 -23 -220 25
-318 20 -41 42 -81 48 -89 9 -13 -106 -222 -622 -1125 -348 -611 -634 -1112
-636 -1114 -2 -2 -105 14 -230 37 -278 51 -369 65 -588 91 -414 49 -540 55
-1165 56 -676 0 -962 -14 -1605 -81 -209 -21 -338 -37 -711 -86 -45 -6 -86
-13 -92 -17 -8 -5 19 -227 30 -236 2 -1 44 4 93 11 50 8 163 23 252 35 l161
20 424 -40 c232 -23 491 -48 573 -56 83 -8 571 -56 1085 -105 1449 -139 1465
-141 1472 -143 4 -1 -63 -123 -148 -272 -153 -268 -155 -270 -187 -269 -17 1
-165 13 -327 27 -1019 90 -2093 90 -3345 2 -456 -33 -1151 -98 -1162 -109 -5
-5 23 -226 30 -232 3 -3 93 3 199 15 480 52 413 52 1228 -9 294 -21 848 -62
1230 -90 1518 -112 1861 -138 1866 -142 2 -3 -64 -125 -148 -273 l-153 -267
-105 6 c-533 31 -1612 40 -2180 17 -926 -36 -1791 -102 -2547 -192 -173 -21
-183 -23 -183 -43 1 -37 27 -206 33 -212 3 -3 131 8 284 25 153 17 318 35 367
41 84 9 545 -10 1921 -80 116 -6 579 -28 1030 -50 1047 -50 1065 -51 1065 -59
0 -3 -39 -73 -85 -156 -66 -117 -85 -158 -85 -189 l0 -38 -102 6 c-739 47
-2118 30 -3208 -39 -557 -36 -1609 -131 -1625 -147 -5 -4 23 -229 29 -235 2
-2 39 0 82 6 44 6 196 22 339 37 211 21 286 25 395 19 197 -9 862 -53 865 -57
2 -2 47 -91 100 -198 166 -332 450 -849 622 -1129 52 -85 61 -107 51 -117 -7
-7 -85 -69 -173 -138 -120 -94 -162 -122 -170 -112 -5 7 -213 262 -461 567
-493 606 -467 569 -685 988 -29 57 -58 105 -64 107 -14 5 -205 -95 -205 -108
0 -21 237 -458 443 -818 165 -287 343 -582 509 -839 66 -101 115 -187 111
-191 -40 -35 -205 -161 -207 -158 -2 1 -248 327 -548 723 -545 720 -545 720
-610 860 -36 77 -85 185 -109 240 -23 55 -44 101 -44 103 -2 2 -216 -87 -223
-93 -4 -3 117 -271 237 -525 228 -482 591 -1143 838 -1528 29 -45 53 -87 53
-92 0 -5 -66 -61 -148 -124 -112 -88 -150 -112 -158 -103 -6 7 -130 154 -274
327 -145 173 -298 356 -340 405 -68 81 -83 107 -154 270 -43 99 -79 181 -80
182 -1 2 -43 -13 -92 -33 -49 -20 -99 -40 -111 -45 -21 -8 -21 -10 41 -156
147 -343 366 -789 534 -1086 l100 -177 -656 -513 c-360 -281 -665 -525 -676
-540 -15 -21 -21 -43 -20 -82 0 -45 5 -61 31 -92 38 -48 106 -69 162 -49 20 6
325 237 677 513 l642 500 110 -166 c255 -387 484 -670 804 -996 86 -88 193
-191 237 -230 44 -38 80 -74 80 -78 1 -5 -177 -316 -396 -690 -218 -375 -405
-701 -415 -725 -66 -147 121 -280 237 -169 18 18 202 325 420 702 214 369 390
672 392 674 1 2 29 -17 60 -42 123 -99 414 -317 538 -403 205 -143 571 -372
579 -363 6 7 116 200 116 204 0 1 -33 22 -72 45 -229 135 -197 104 -594 576
l-365 434 78 135 c43 74 81 134 84 132 3 -1 68 -69 144 -152 356 -384 995
-998 1434 -1380 l114 -99 47 53 c47 53 47 53 76 38 16 -8 46 -22 67 -31 l38
-16 33 73 c56 122 190 461 266 672 365 1014 552 1875 600 2760 30 562 -6 1376
-85 1959 -9 60 -13 111 -10 114 2 3 159 -5 347 -17 189 -12 393 -25 453 -29
l110 -7 9 -57 c8 -48 -17 -303 -143 -1510 -83 -799 -154 -1462 -156 -1473 -3
-11 -46 -67 -96 -125 -265 -307 -500 -660 -679 -1025 -74 -148 -203 -446 -197
-451 1 -1 55 -34 119 -73 l117 -72 29 33 c16 18 120 139 231 268 193 224 205
241 271 370 37 74 77 144 89 154 11 11 21 17 21 15 0 -2 -27 -254 -59 -559
l-59 -555 -76 -198 c-41 -108 -77 -201 -80 -206 -5 -8 22 -21 175 -81 l46 -19
56 142 c131 336 270 750 377 1117 57 196 169 631 196 758 19 94 6 82 179 163
99 47 381 147 389 138 3 -2 -4 -103 -15 -224 -11 -121 -42 -474 -69 -785 l-50
-565 -39 -115 c-21 -63 -55 -160 -75 -215 -20 -54 -35 -104 -32 -110 4 -11
214 -91 220 -84 10 13 157 445 215 632 151 485 257 896 341 1317 22 113 41
208 43 212 4 11 167 -46 247 -87 75 -38 245 -150 309 -204 l35 -28 -32 -309
-32 -309 -63 -205 c-35 -113 -74 -238 -87 -277 -13 -40 -22 -74 -19 -76 7 -6
205 -67 217 -67 15 0 148 422 253 800 23 85 45 158 49 163 8 9 112 -99 274
-283 438 -499 780 -823 1127 -1070 192 -137 409 -234 627 -281 125 -26 398
-37 521 -20 196 28 256 50 395 148 l68 48 194 400 c106 220 192 405 191 412
-1 6 -49 47 -107 91 l-105 80 -69 -60 c-92 -80 -102 -85 -187 -109 -292 -82
-567 -63 -829 58 -237 109 -693 482 -1023 836 l-108 116 41 126 c135 417 243
889 297 1300 26 201 26 809 0 1040 -20 181 -69 485 -95 591 l-17 71 -112 -26
c-61 -14 -114 -28 -117 -31 -3 -3 2 -35 10 -70 8 -36 26 -126 38 -201 l23
-136 -107 -1160 c-77 -819 -114 -1180 -127 -1227 l-18 -67 -145 157 c-114 123
-277 283 -383 374 -4 3 4 76 17 161 58 363 75 560 83 929 6 313 -4 553 -33
825 -17 155 -56 417 -79 527 -9 39 -14 73 -12 74 2 2 208 -9 458 -25 l454 -30
237 -55 c130 -30 281 -67 335 -80 54 -14 101 -22 104 -18 7 8 61 223 57 227
-12 10 -764 183 -1153 265 -1086 228 -2362 426 -3232 502 -79 6 -143 15 -143
18 0 4 26 27 58 51 31 25 140 110 242 190 l185 144 555 -26 c305 -15 656 -32
780 -38 124 -6 549 -27 945 -46 396 -19 749 -37 785 -40 36 -3 231 -39 434
-80 204 -41 371 -73 373 -72 5 5 54 229 51 232 -14 14 -979 196 -1528 289
-575 98 -1625 246 -1741 246 -15 0 -30 4 -33 9 -3 4 146 127 331 271 l336 263
301 -22 c166 -12 486 -35 711 -52 l410 -30 250 -65 c138 -35 278 -71 312 -81
34 -9 65 -14 68 -11 8 8 67 219 62 224 -5 5 -307 86 -512 138 -225 56 -705
166 -930 212 -93 19 -179 38 -189 43 -16 6 212 188 1239 993 l1259 985 45 -29
c179 -113 399 -98 552 40 191 171 200 470 20 650 -90 90 -192 132 -321 132
-256 0 -449 -196 -450 -456 l0 -71 -907 -710 c-500 -390 -918 -716 -929 -723
-19 -11 -33 -9 -110 23 -383 154 -848 305 -1326 430 l-88 23 613 1072 612
1072 81 0 c161 0 290 67 375 193 100 151 105 336 13 488 -101 168 -308 253
-494 203z m-1110 -3534 c168 -16 472 -45 675 -65 320 -30 380 -39 443 -62 40
-14 71 -29 70 -34 -2 -4 -156 -127 -343 -274 -305 -239 -343 -266 -370 -261
-16 2 -111 18 -210 36 -222 38 -649 104 -809 124 -66 9 -121 18 -123 20 -2 1
49 95 113 207 207 363 192 339 222 339 15 0 164 -13 332 -30z m-460 -1071
c239 -17 437 -33 439 -35 3 -3 -4 -11 -15 -18 -10 -8 -159 -124 -331 -258
l-311 -244 -119 12 c-65 6 -198 18 -296 25 -123 9 -177 16 -175 24 2 6 70 129
152 273 l150 262 35 -5 c20 -3 232 -19 471 -36z m-930 -1048 l75 -6 -239 -187
c-132 -103 -241 -186 -243 -184 -2 1 45 89 104 194 l108 191 60 -1 c33 0 94
-3 135 -7z m-3296 -811 c164 -10 300 -20 302 -22 1 -2 27 -62 57 -133 88 -207
202 -447 293 -616 46 -86 84 -159 84 -162 0 -12 -245 -196 -251 -189 -3 4
-168 210 -365 457 -308 387 -367 465 -416 560 -32 61 -57 113 -58 118 0 10 16
9 354 -13z m1024 -65 c212 -14 387 -27 388 -28 46 -63 133 -212 127 -218 -19
-19 -458 -359 -464 -359 -3 0 -109 124 -235 276 -206 248 -262 323 -264 347 0
10 24 9 448 -18z m762 -51 c0 -8 -32 -33 -42 -34 -4 0 -12 9 -18 20 -10 18 -8
20 25 20 19 0 35 -3 35 -6z m878 -59 c3 -2 9 -42 15 -87 8 -75 5 -119 -36
-437 -26 -194 -48 -356 -51 -359 -11 -10 -289 242 -439 398 -115 120 -233 258
-226 264 14 11 243 189 280 217 l45 35 204 -13 c112 -8 206 -16 208 -18z
m1856 -115 c204 -13 302 -23 307 -32 4 -6 13 -48 19 -92 12 -86 21 29 -148
-1896 l-27 -305 -55 -18 c-116 -40 -249 -92 -337 -133 -51 -24 -93 -40 -93
-36 0 4 7 84 15 177 22 251 30 766 16 1060 -19 390 -47 700 -97 1045 -14 96
-28 194 -31 218 l-6 42 69 -5 c38 -3 204 -15 368 -25z m1041 -66 c226 -14 413
-29 418 -33 4 -4 19 -65 33 -137 l25 -129 -95 -935 c-53 -514 -98 -956 -102
-981 l-6 -47 -71 33 c-145 67 -307 105 -447 105 l-75 0 4 302 c4 406 -18 795
-69 1215 -19 154 -69 483 -88 586 l-9 47 36 0 c20 0 221 -11 446 -26z m-3728
-314 c122 -143 396 -409 576 -558 81 -68 147 -129 147 -135 0 -30 -112 -914
-118 -930 -6 -15 -129 128 -581 674 -316 380 -574 698 -575 705 -1 16 446 366
455 356 4 -4 47 -54 96 -112z m-841 -660 c318 -454 716 -833 1236 -1176 90
-59 165 -108 167 -110 4 -4 -90 -767 -96 -774 -2 -2 -7 1 -11 7 -4 6 -365 460
-802 1008 -437 548 -795 1000 -795 1005 0 10 197 169 207 167 3 -1 46 -58 94
-127z m-595 -452 c129 -193 303 -430 435 -594 l33 -40 -92 -160 c-51 -87 -96
-159 -99 -159 -11 0 -679 827 -673 834 17 17 301 239 307 240 4 1 44 -54 89
-121z m-696 -530 c177 -252 429 -578 608 -785 l96 -112 -73 -126 -74 -126
-298 393 c-164 216 -353 465 -420 554 l-122 160 96 77 c53 42 99 76 102 76 3
1 42 -50 85 -111z m1900 -859 c189 -164 432 -353 642 -499 l22 -15 -51 -405
c-28 -223 -52 -406 -54 -408 -1 -2 -35 23 -76 55 -61 48 -170 177 -633 746
-308 378 -562 692 -563 698 -2 5 14 40 36 77 21 37 64 110 95 163 l56 96 203
-202 c112 -111 257 -248 323 -306z m-2534 396 c184 -277 500 -685 789 -1020
52 -61 101 -118 109 -128 12 -15 5 -32 -59 -144 -41 -71 -75 -130 -77 -132 -1
-2 -11 7 -22 20 -16 21 -269 322 -902 1075 l-178 211 136 107 c75 58 140 103
143 99 4 -5 31 -44 61 -88z m1799 -918 c275 -274 477 -457 755 -688 173 -144
458 -369 492 -388 12 -6 9 -48 -17 -252 -30 -238 -32 -247 -80 -369 -28 -69
-54 -131 -59 -139 -7 -11 -35 8 -128 90 -65 57 -146 131 -181 164 -37 36 -288
357 -627 805 l-564 745 26 45 c65 113 134 230 136 230 1 0 112 -109 247 -243z"/>
</g>
</svg>
